<svg xmlns="http://www.w3.org/2000/svg" viewBox="0 0 300 200">
  <!-- Theatre seats from behind — rows perspective -->
  <!-- Screen glow at top -->
  <rect x="60" y="10" width="180" height="8" fill="#C22B2B" opacity="0.2" rx="4"/>
  <rect x="80" y="5" width="140" height="3" fill="#C22B2B" opacity="0.1" rx="1"/>
  <!-- Row 1 (furthest, smallest) -->
  <g fill="none" stroke="#C22B2B" stroke-width="1.5" opacity="0.25">
    <path d="M72,50 Q72,42 78,42 L86,42 Q92,42 92,50" />
    <path d="M98,50 Q98,42 104,42 L112,42 Q118,42 118,50" />
    <path d="M124,50 Q124,42 130,42 L138,42 Q144,42 144,50" />
    <path d="M156,50 Q156,42 162,42 L170,42 Q176,42 176,50" />
    <path d="M182,50 Q182,42 188,42 L196,42 Q202,42 202,50" />
    <path d="M208,50 Q208,42 214,42 L222,42 Q228,42 228,50" />
  </g>
  <!-- Row 2 -->
  <g fill="none" stroke="#C22B2B" stroke-width="1.8" opacity="0.35">
    <path d="M58,80 Q58,70 66,70 L76,70 Q84,70 84,80" />
    <path d="M92,80 Q92,70 100,70 L110,70 Q118,70 118,80" />
    <path d="M126,80 Q126,70 134,70 L144,70 Q152,70 152,80" />
    <path d="M160,80 Q160,70 168,70 L178,70 Q186,70 186,80" />
    <path d="M194,80 Q194,70 202,70 L212,70 Q220,70 220,80" />
    <path d="M228,80 Q228,70 236,70 L246,70 Q254,70 254,80" />
  </g>
  <!-- Row 3 -->
  <g fill="none" stroke="#C22B2B" stroke-width="2" opacity="0.5">
    <path d="M44,115 Q44,103 54,103 L66,103 Q76,103 76,115" />
    <path d="M86,115 Q86,103 96,103 L108,103 Q118,103 118,115" />
    <path d="M128,115 Q128,103 138,103 L150,103 Q160,103 160,115" />
    <path d="M170,115 Q170,103 180,103 L192,103 Q202,103 202,115" />
    <path d="M212,115 Q212,103 222,103 L234,103 Q244,103 244,115" />
  </g>
  <!-- Row 4 (closest, largest, most visible) -->
  <g fill="none" stroke="#C22B2B" stroke-width="2.5" opacity="0.7">
    <path d="M30,155 Q30,140 42,140 L58,140 Q70,140 70,155" />
    <path d="M82,155 Q82,140 94,140 L110,140 Q122,140 122,155" />
    <path d="M134,155 Q134,140 146,140 L162,140 Q174,140 174,155" />
    <path d="M186,155 Q186,140 198,140 L214,140 Q226,140 226,155" />
    <path d="M238,155 Q238,140 250,140 L266,140 Q278,140 278,155" />
  </g>
  <!-- Armrests on front row -->
  <g stroke="#C22B2B" stroke-width="1.5" opacity="0.4">
    <line x1="30" y1="140" x2="30" y2="155"/>
    <line x1="70" y1="140" x2="70" y2="155"/>
    <line x1="82" y1="140" x2="82" y2="155"/>
    <line x1="122" y1="140" x2="122" y2="155"/>
    <line x1="134" y1="140" x2="134" y2="155"/>
    <line x1="174" y1="140" x2="174" y2="155"/>
    <line x1="186" y1="140" x2="186" y2="155"/>
    <line x1="226" y1="140" x2="226" y2="155"/>
    <line x1="238" y1="140" x2="238" y2="155"/>
    <line x1="278" y1="140" x2="278" y2="155"/>
  </g>
  <!-- Aisle floor line -->
  <line x1="20" y1="170" x2="280" y2="170" stroke="#C22B2B" stroke-width="0.5" opacity="0.15"/>
</svg>